<svg xmlns="http://www.w3.org/2000/svg" xmlns:xlink="http://www.w3.org/1999/xlink" xmlns:inkscape="http://www.inkscape.org/namespaces/inkscape" version="1.1" width="1080" height="637.588" viewBox="0 0 1080 637.588" fill="white">
<defs>
<clipPath id="clip_0">
<path transform="matrix(1,0,0,-1,0,637.588)" d="M0 637.589H1080V0H0Z"/>
</clipPath>
</defs>
<g inkscape:groupmode="layer" inkscape:label="Capa 1">
<g clip-path="url(#clip_0)">
<path transform="matrix(1,0,0,-1,263.2029,399.1253)" d="M0 0C-.691-1.517-1.693-2.968-2.027-4.56-8.109-33.546-14.107-62.55-20.131-91.549-23.752-108.98-27.48-126.39-30.928-143.855-31.542-146.963-32.665-147.92-35.786-147.898-54.615-147.765-73.447-147.753-92.277-147.91-95.455-147.936-96.564-146.808-97.165-143.864-106.48-98.219-115.88-52.59-125.298-6.965-125.768-4.688-126.581-2.482-127.233-.242-127.869-.409-128.505-.576-129.14-.742V-184.679H-166.027V35.802C-164.72 35.925-163.442 36.147-162.163 36.149-142.499 36.171-122.834 36.096-103.172 36.232-99.862 36.255-98.681 35.248-98.042 31.916-86.856-26.418-75.513-84.722-64.195-143.031-64.108-143.479-63.903-143.903-62.915-144.459-51.356-84.437-39.797-24.415-28.19 35.858H38.214V-184.758H1.593V-.523Z"/>
<path transform="matrix(1,0,0,-1,642.1251,146.95981)" d="M0 0C9.354-11.894 18.085-23.007 26.827-34.112 40.325-51.257 53.886-68.353 67.275-85.582 69.438-88.366 71.724-89.417 75.242-89.406 113.235-89.286 151.229-89.331 189.223-89.332H195.513V-125.336C193.588-125.336 191.789-125.336 189.989-125.336 146.33-125.336 102.671-125.29 59.011-125.42 55.293-125.431 52.986-124.324 50.686-121.371 26.121-89.833 1.397-58.418-23.285-26.971-24.003-26.057-24.744-25.161-25.797-23.857-27.628-25.369-29.404-26.773-31.111-28.257-39.156-35.25-47.084-42.382-55.27-49.205-57.871-51.373-58.697-53.671-58.679-56.918-58.568-77.747-58.623-98.578-58.623-119.408-58.623-121.189-58.623-122.971-58.623-125.041H-93.339C-93.443-123.232-93.614-121.62-93.615-120.008-93.632-94.679-93.563-69.35-93.705-44.021-93.723-40.675-92.586-38.505-90.171-36.351-43.073 5.673 3.954 47.776 51.068 89.782 52.405 90.973 54.53 91.903 56.29 91.907 101.949 92.018 147.608 91.991 193.267 91.977 193.909 91.977 194.552 91.838 195.524 91.726V56.168H189.867C149.707 56.168 109.547 56.203 69.388 56.075 67.125 56.067 64.342 55.318 62.684 53.889 42.624 36.596 22.733 19.105 2.777 1.69 2.035 1.043 1.076 .645 0 0"/>
<path transform="matrix(1,0,0,-1,630.9981,473.29383)" d="M0 0C0-15.66 .74-31.368-.256-46.964-.939-57.667 1.707-65.762 10.815-71.347 13.324-72.885 16.326-74.443 19.142-74.519 31.794-74.858 44.51-73.977 57.107-74.879 67.731-75.639 76.108-73.072 82.994-64.84 85.129-62.287 86.591-60.155 86.578-56.649 86.447-22.497 86.036 11.666 86.771 45.802 87.003 56.587 84.944 64.97 75.573 70.637 73.047 72.165 70.065 73.769 67.251 73.847 54.766 74.194 42.207 73.246 29.788 74.222 18.751 75.09 10.131 72.298 3.013 63.807 1.069 61.487-.09 59.559-.068 56.476 .068 37.652 0 18.826 0 0M-35.996-.466C-35.996 24.528-36.07 49.524-35.873 74.517-35.855 76.845-34.689 79.705-33.082 81.388-24.566 90.301-15.829 99.011-6.934 107.547-5.351 109.066-2.668 110.204-.485 110.217 28.674 110.391 57.836 110.391 86.995 110.215 89.166 110.202 91.827 109.029 93.41 107.51 102.305 98.974 111.03 90.254 119.578 81.371 121.114 79.775 122.376 77.129 122.383 74.963 122.538 24.64 122.537-25.683 122.388-76.005 122.382-78.191 121.23-80.884 119.706-82.471 111.05-91.481 102.198-100.31 93.198-108.978 91.735-110.388 89.204-111.382 87.16-111.393 57.834-111.546 28.506-111.547-.82-111.391-2.853-111.38-5.361-110.339-6.826-108.925-15.82-100.251-24.672-91.424-33.321-82.407-34.823-80.841-35.868-78.137-35.884-75.95-36.06-50.79-35.996-25.628-35.996-.466"/>
<path transform="matrix(1,0,0,-1,491.4976,473.85585)" d="M0 0C0 15.984-.716 32.013 .257 47.938 .884 58.193-2.234 65.305-10.351 71.16-13.352 73.324-15.992 74.684-19.734 74.629-32.219 74.445-44.764 73.834-57.18 74.78-67.872 75.595-76.107 72.78-83.025 64.616-85.236 62.007-86.412 59.792-86.401 56.375-86.289 21.909-85.888-12.566-86.604-47.018-86.818-57.342-84.374-64.753-75.909-70.67-72.894-72.776-70.342-74.235-66.594-74.177-54.109-73.985-41.567-73.399-29.147-74.32-18.503-75.109-9.896-72.681-3.513-64.067-1.883-61.867-.192-59.018-.153-56.443 .13-37.632 0-18.815 0 0M-122.331-.138C-122.331 24.526-122.268 49.189-122.4 73.852-122.419 77.433-121.555 80.058-118.904 82.629-110.416 90.863-102.333 99.518-93.804 107.708-92.012 109.429-88.993 110.744-86.529 110.761-57.534 110.97-28.537 110.953 .458 110.778 2.633 110.765 5.303 109.614 6.882 108.096 15.894 99.44 24.726 90.591 33.401 81.597 34.825 80.12 35.891 77.6 35.897 75.558 36.033 25.232 36.037-25.095 35.89-75.421 35.883-77.609 34.743-80.307 33.221-81.893 24.565-90.905 15.712-99.734 6.712-108.403 5.247-109.814 2.721-110.82 .679-110.831-28.483-110.985-57.647-110.993-86.809-110.821-88.989-110.808-91.673-109.691-93.249-108.177-102.143-99.638-110.877-90.924-119.391-82.008-121.004-80.319-122.188-77.458-122.207-75.127-122.406-50.132-122.331-25.135-122.331-.138"/>
<path transform="matrix(1,0,0,-1,819.7515,398.2961)" d="M0 0V35.5C1.865 35.5 3.482 35.5 5.098 35.5 40.596 35.5 76.093 35.455 111.59 35.573 115.032 35.585 117.441 34.613 119.865 32.152 134.246 17.546 148.84 3.149 163.226-11.452 164.695-12.943 166.106-15.318 166.119-17.292 166.304-45.456 166.245-73.621 166.234-101.785 166.234-102.58 166.108-103.375 166.021-104.403H130.746C130.746-102.351 130.746-100.415 130.746-98.478 130.746-77.813 130.849-57.147 130.61-36.484 130.581-34.006 129.285-30.988 127.567-29.178 119.308-20.479 110.612-12.197 102.276-3.569 99.755-.96 97.185 .095 93.541 .077 64.544-.062 35.546 0 6.548 0 4.564 0 2.58 0 0 0"/>
<path transform="matrix(1,0,0,-1,914.1648,270.60343)" d="M0 0H-32.054C-32.151 1.762-32.317 3.365-32.318 4.967-32.333 40.777-32.386 76.589-32.219 112.399-32.206 115.161-31.242 118.344-29.675 120.608-8.836 150.716 12.226 180.67 33.109 210.747 34.937 213.381 36.82 214.444 40.034 214.387 50.995 214.191 61.961 214.312 74.004 214.312 71.3 210.203 69.133 206.812 66.869 203.486 45.518 172.119 24.096 140.8 2.892 109.334 1.178 106.791 .141 103.267 .122 100.191-.077 68.879 0 37.564 0 6.251Z"/>
<path transform="matrix(1,0,0,-1,820.3538,584.10696)" d="M0 0V62.618H34.216V35.536H87.735V0Z"/>
<path transform="matrix(1,0,0,-1,0,637.588)" d="M826.094 457.607H710.217V490.52H826.094Z"/>
<path transform="matrix(1,0,0,-1,229.5898,211.55912)" d="M0 0C12.276-12.395 23.615-23.844 34.758-35.096 27.095-42.601 19.315-50.222 11.347-58.027-6.896-39.331-25.79-19.969-44.491-.805-31.62 12.033-17.89 25.728-4.283 39.299 2.446 32.368 9.799 24.795 17.481 16.883 12.427 12.002 6.374 6.156 0 0"/>
<path transform="matrix(1,0,0,-1,119.2197,270.0802)" d="M0 0C-8.201 8.065-15.876 15.612-23.664 23.271-12.206 34.619-.663 46.052 11.551 58.148 4.905 64.123-1.259 69.665-7.197 75.004 1.046 83.431 8.395 90.945 15.372 98.079 29.072 84.312 42.744 70.572 55.993 57.258 37.494 38.341 18.582 19.002 0 0"/>
<path transform="matrix(1,0,0,-1,566.8223,138.488)" d="M0 0C-6.493 7.171-12.607 13.923-19.141 21.138-8.705 30.603 1.562 39.914 12.196 49.558 7.408 54.953 2.711 60.244-2.39 65.991 4.383 72.143 10.962 78.119 18.045 84.553 29.417 72.038 40.65 59.675 52.137 47.033 34.709 31.311 17.479 15.768 0 0"/>
</g>
</g>
</svg>
